<?xml version="1.0" encoding="UTF-8" standalone="no"?>
<svg
   width="840"
   height="220"
   viewBox="0 0 840 220"
   version="1.1"
   id="svg24"
   xmlns="http://www.w3.org/2000/svg"
   xmlns:svg="http://www.w3.org/2000/svg">
  <defs
     id="defs28" />
  <g
     transform="translate(22,24)"
     id="g16">
    <path
       id="rect2"
       style="fill:#201a16"
       d="M 84.5,12 C 124.665,12 157,44.335 157,84.5 157,124.665 124.665,157 84.5,157 44.335,157 12,124.665 12,84.5 12,44.335 44.335,12 84.5,12 Z" />
    <path
       d="M 48,49 V 76 H 66 M 48,121 V 94 h 18 m 55,-45 v 27 h -18 m 18,45 V 94 h -18"
       fill="none"
       stroke="#d9a45f"
       stroke-width="7"
       stroke-linecap="round"
       id="path4" />
    <path
       id="circle6"
       style="fill:#f3f0e8"
       d="M 99,85 A 15,15 0 0 1 84,100 15,15 0 0 1 69,85 15,15 0 0 1 84,70 15,15 0 0 1 99,85 Z" />
    <path
       id="circle8"
       style="fill:#ff6848"
       d="m 90,45 a 6,6 0 0 1 -6,6 6,6 0 0 1 -6,-6 6,6 0 0 1 6,-6 6,6 0 0 1 6,6 z" />
    <path
       id="circle10"
       style="fill:#f0c35a"
       d="m 130,85 a 6,6 0 0 1 -6,6 6,6 0 0 1 -6,-6 6,6 0 0 1 6,-6 6,6 0 0 1 6,6 z" />
    <path
       id="circle12"
       style="fill:#6e5cff"
       d="m 90,125 a 6,6 0 0 1 -6,6 6,6 0 0 1 -6,-6 6,6 0 0 1 6,-6 6,6 0 0 1 6,6 z" />
    <path
       id="circle14"
       style="fill:#57d8ff"
       d="m 50,85 a 6,6 0 0 1 -6,6 6,6 0 0 1 -6,-6 6,6 0 0 1 6,-6 6,6 0 0 1 6,6 z" />
  </g>
  <g
     aria-label="BOURBON GAMES PRESENTS"
     id="text18"
     style="font-weight:700;font-size:20px;font-family:'Nimbus Sans', Arial, sans-serif;letter-spacing:8;fill:#a35b38">
    <path
       d="m 206.64,84 h 6.56 c 1.68,0 2.8,-0.32 3.68,-1.06 0.88,-0.74 1.44,-1.96 1.44,-3.14 0,-1.44 -0.76,-2.58 -2.42,-3.54 1.44,-0.92 2,-1.76 2,-3 0,-1.02 -0.5,-2.06 -1.32,-2.78 -0.86,-0.74 -1.88,-1.06 -3.44,-1.06 h -6.5 z m 3,-12.08 h 3.26 c 1.4,0 2.12,0.56 2.12,1.64 0,1.1 -0.72,1.66 -2.12,1.66 h -3.26 z m 0,5.8 h 3.58 c 1.46,0 2.22,0.64 2.22,1.9 0,1.24 -0.76,1.88 -2.22,1.88 h -3.58 z"
       id="path36" />
    <path
       d="m 234.94001,69.18 c -2.04,0 -3.72,0.68 -4.96,2.02 -1.3,1.4 -2.04,3.44 -2.04,5.62 0,2.18 0.74,4.24 2.04,5.62 1.26,1.36 2.9,2.02 4.98,2.02 2.08,0 3.72,-0.66 4.98,-2.02 1.26,-1.34 2.04,-3.46 2.04,-5.52 0,-2.28 -0.74,-4.34 -2.04,-5.72 -1.28,-1.38 -2.88,-2.02 -5,-2.02 z m 0.02,2.56 c 2.46,0 4.02,2 4.02,5.16 0,3 -1.62,5 -4.02,5 -2.44,0 -4.02,-2 -4.02,-5.08 0,-3.08 1.58,-5.08 4.02,-5.08 z"
       id="path38" />
    <path
       d="m 260.78001,69.42 v 9.88 c 0,1.76 -0.9,2.6 -2.78,2.6 -1.88,0 -2.78,-0.84 -2.78,-2.6 v -9.88 h -3 v 9.88 c 0,1.64 0.44,2.8 1.42,3.68 1.06,0.96 2.6,1.48 4.36,1.48 1.76,0 3.3,-0.52 4.36,-1.48 0.98,-0.88 1.42,-2.04 1.42,-3.68 v -9.88 z"
       id="path40" />
    <path
       d="m 277.74001,78.22 h 3.44 c 1.3,0 1.86,0.52 1.86,1.72 v 0.6 c -0.02,0.38 -0.02,0.74 -0.02,0.96 0,1.38 0.08,1.8 0.44,2.5 h 3.22 v -0.54 c -0.46,-0.26 -0.64,-0.56 -0.64,-1.2 -0.08,-4.3 -0.16,-4.5 -2.02,-5.3 1.64,-0.64 2.46,-1.82 2.46,-3.6 0,-1.16 -0.4,-2.22 -1.1,-2.94 -0.66,-0.68 -1.58,-1 -2.82,-1 h -7.82 V 84 h 3 z m 0,-2.5 v -3.8 h 3.62 c 0.86,0 1.2,0.08 1.58,0.38 0.36,0.3 0.54,0.8 0.54,1.48 0,0.7 -0.18,1.26 -0.54,1.56 -0.34,0.28 -0.72,0.38 -1.58,0.38 z"
       id="path42" />
    <path
       d="m 297.12003,84 h 6.56 c 1.68,0 2.8,-0.32 3.68,-1.06 0.88,-0.74 1.44,-1.96 1.44,-3.14 0,-1.44 -0.76,-2.58 -2.42,-3.54 1.44,-0.92 2,-1.76 2,-3 0,-1.02 -0.5,-2.06 -1.32,-2.78 -0.86,-0.74 -1.88,-1.06 -3.44,-1.06 h -6.5 z m 3,-12.08 h 3.26 c 1.4,0 2.12,0.56 2.12,1.64 0,1.1 -0.72,1.66 -2.12,1.66 h -3.26 z m 0,5.8 h 3.58 c 1.46,0 2.22,0.64 2.22,1.9 0,1.24 -0.76,1.88 -2.22,1.88 h -3.58 z"
       id="path44" />
    <path
       d="m 325.42005,69.18 c -2.04,0 -3.72,0.68 -4.96,2.02 -1.3,1.4 -2.04,3.44 -2.04,5.62 0,2.18 0.74,4.24 2.04,5.62 1.26,1.36 2.9,2.02 4.98,2.02 2.08,0 3.72,-0.66 4.98,-2.02 1.26,-1.34 2.04,-3.46 2.04,-5.52 0,-2.28 -0.74,-4.34 -2.04,-5.72 -1.28,-1.38 -2.88,-2.02 -5,-2.02 z m 0.02,2.56 c 2.46,0 4.02,2 4.02,5.16 0,3 -1.62,5 -4.02,5 -2.44,0 -4.02,-2 -4.02,-5.08 0,-3.08 1.58,-5.08 4.02,-5.08 z"
       id="path46" />
    <path
       d="m 351.40005,84 h 3 V 69.42 h -3 v 9.92 l -5.78,-9.92 h -3.08 V 84 h 3 V 73.92 Z"
       id="path48" />
    <path
       d="m 391.40005,76.16 h -5.84 v 2.5 h 3.32 c -0.08,0.82 -0.28,1.32 -0.72,1.84 -0.72,0.88 -1.84,1.4 -2.98,1.4 -2.44,0 -4.16,-2.12 -4.16,-5.12 0,-3.14 1.52,-5.04 4.08,-5.04 1.04,0 1.92,0.3 2.58,0.88 0.42,0.36 0.64,0.7 0.9,1.46 h 2.82 c -0.36,-3.02 -2.8,-4.9 -6.32,-4.9 -4.2,0 -7.06,3.1 -7.06,7.64 0,4.42 2.88,7.64 6.82,7.64 1.96,0 3.28,-0.7 4.4,-2.34 l 0.36,1.92 h 1.8 z"
       id="path50" />
    <path
       d="m 410.58003,81.06 0.96,2.94 h 3.08 l -5.04,-14.58 h -3.32 l -5.18,14.58 h 3.06 l 0.98,-2.94 z m -0.82,-2.5 h -3.8 l 1.9,-5.7 z"
       id="path52" />
    <path
       d="m 427.32003,72.64 2.62,11.36 h 3 l 2.58,-11.36 V 84 h 3 V 69.42 h -4.52 l -2.56,11.6 -2.64,-11.6 h -4.48 V 84 h 3 z"
       id="path54" />
    <path
       d="m 452.24003,77.72 h 6.98 v -2.5 h -6.98 v -3.3 h 7.54 v -2.5 h -10.54 V 84 h 10.9 v -2.5 h -7.9 z"
       id="path56" />
    <path
       d="m 480.94002,73.86 c -0.02,-3.02 -2.04,-4.68 -5.72,-4.68 -3.5,0 -5.52,1.64 -5.52,4.48 0,2.26 1.14,3.36 4.1,3.92 l 2.04,0.4 c 2,0.38 2.74,0.94 2.74,2.12 0,1.22 -1.12,1.96 -2.94,1.96 -2.04,0 -3.18,-0.86 -3.28,-2.42 h -2.92 c 0.18,3.12 2.32,4.82 6.04,4.82 3.76,0 5.98,-1.74 5.98,-4.72 0,-2.3 -1.16,-3.5 -3.86,-4.02 l -2.28,-0.44 c -2.14,-0.42 -2.76,-0.84 -2.76,-1.9 0,-1.1 0.96,-1.8 2.52,-1.8 1.9,0 2.96,0.8 3.06,2.28 z"
       id="path58" />
    <path
       d="m 508.22001,78.8 h 3.74 c 2.68,0 4.4,-1.9 4.4,-4.86 0,-2.92 -1.66,-4.52 -4.7,-4.52 h -6.44 V 84 h 3 z m 0,-2.5 v -4.38 h 2.8 c 1.6,0 2.34,0.7 2.34,2.18 0,1.5 -0.74,2.2 -2.34,2.2 z"
       id="path60" />
    <path
       d="m 529.26003,78.22 h 3.44 c 1.3,0 1.86,0.52 1.86,1.72 v 0.6 c -0.02,0.38 -0.02,0.74 -0.02,0.96 0,1.38 0.08,1.8 0.44,2.5 h 3.22 v -0.54 c -0.46,-0.26 -0.64,-0.56 -0.64,-1.2 -0.08,-4.3 -0.16,-4.5 -2.02,-5.3 1.64,-0.64 2.46,-1.82 2.46,-3.6 0,-1.16 -0.4,-2.22 -1.1,-2.94 -0.66,-0.68 -1.58,-1 -2.82,-1 h -7.82 V 84 h 3 z m 0,-2.5 v -3.8 h 3.62 c 0.86,0 1.2,0.08 1.58,0.38 0.36,0.3 0.54,0.8 0.54,1.48 0,0.7 -0.18,1.26 -0.54,1.56 -0.34,0.28 -0.72,0.38 -1.58,0.38 z"
       id="path62" />
    <path
       d="m 551.62004,77.72 h 6.98 v -2.5 h -6.98 v -3.3 h 7.54 v -2.5 h -10.54 V 84 h 10.9 v -2.5 h -7.9 z"
       id="path64" />
    <path
       d="m 580.32002,73.86 c -0.02,-3.02 -2.04,-4.68 -5.72,-4.68 -3.5,0 -5.52,1.64 -5.52,4.48 0,2.26 1.14,3.36 4.1,3.92 l 2.04,0.4 c 2,0.38 2.74,0.94 2.74,2.12 0,1.22 -1.12,1.96 -2.94,1.96 -2.04,0 -3.18,-0.86 -3.28,-2.42 h -2.92 c 0.18,3.12 2.32,4.82 6.04,4.82 3.76,0 5.98,-1.74 5.98,-4.72 0,-2.3 -1.16,-3.5 -3.86,-4.02 l -2.28,-0.44 c -2.14,-0.42 -2.76,-0.84 -2.76,-1.9 0,-1.1 0.96,-1.8 2.52,-1.8 1.9,0 2.96,0.8 3.06,2.28 z"
       id="path66" />
    <path
       d="m 594.10002,77.72 h 6.98 v -2.5 h -6.98 v -3.3 h 7.54 v -2.5 h -10.54 V 84 h 10.9 v -2.5 h -7.9 z"
       id="path68" />
    <path
       d="m 621.08002,84 h 3 V 69.42 h -3 v 9.92 l -5.78,-9.92 h -3.08 V 84 h 3 V 73.92 Z"
       id="path70" />
    <path
       d="m 641.00002,71.92 h 4.26 v -2.5 h -11.68 v 2.5 h 4.42 V 84 h 3 z"
       id="path72" />
    <path
       d="m 665.68001,73.86 c -0.02,-3.02 -2.04,-4.68 -5.72,-4.68 -3.5,0 -5.52,1.64 -5.52,4.48 0,2.26 1.14,3.36 4.1,3.92 l 2.04,0.4 c 2,0.38 2.74,0.94 2.74,2.12 0,1.22 -1.12,1.96 -2.94,1.96 -2.04,0 -3.18,-0.86 -3.28,-2.42 h -2.92 c 0.18,3.12 2.32,4.82 6.04,4.82 3.76,0 5.98,-1.74 5.98,-4.72 0,-2.3 -1.16,-3.5 -3.86,-4.02 l -2.28,-0.44 c -2.14,-0.42 -2.76,-0.84 -2.76,-1.9 0,-1.1 0.96,-1.8 2.52,-1.8 1.9,0 2.96,0.8 3.06,2.28 z"
       id="path74" />
  </g>
  <g
     aria-label="WHISKEY DRAFT"
     id="text20"
     style="font-weight:700;font-size:71px;font-family:Georgia, serif;letter-spacing:-3;fill:#201a16">
    <path
       d="m 260.49561,151 h -8.94434 L 239.8335,113.31592 228.11572,151 h -8.94433 l -14.76856,-47.56445 h -5.02685 v -4.194827 h 24.54492 v 4.194827 h -5.54688 l 9.88037,31.79052 11.16309,-35.985347 h 9.8457 l 11.3711,36.574707 10.08838,-32.37988 h -6.1709 v -4.194827 h 16.0166 v 4.194827 h -5.3042 z"
       id="path77" />
    <path
       d="m 280.06445,151 v -4.19482 h 6.62159 v -43.36963 h -6.62159 v -4.194827 h 26.625 v 4.194827 h -6.65625 v 17.40332 h 20.59278 v -17.40332 h -6.62159 v -4.194827 h 26.625 v 4.194827 h -6.65625 v 43.36963 h 6.65625 V 151 h -26.625 v -4.19482 h 6.62159 v -21.2168 H 300.0332 v 21.2168 h 6.65625 V 151 Z"
       id="path79" />
    <path
       d="m 344.14697,151 v -4.19482 h 6.62158 v -43.36963 h -6.62158 v -4.194827 h 26.625 v 4.194827 h -6.65625 v 43.36963 h 6.65625 V 151 Z"
       id="path81" />
    <path
       d="m 376.5083,148.50391 v -12.27246 h 4.40283 q 1.00537,5.82421 4.74951,8.70166 3.74415,2.87744 10.36573,2.87744 5.37353,0 8.18164,-2.04541 2.8081,-2.04541 2.8081,-5.99756 0,-3.12012 -1.90674,-4.85352 -1.90673,-1.7334 -7.86962,-3.22412 l -7.76563,-1.90674 q -7.59228,-1.9414 -10.67773,-5.37353 -3.08545,-3.4668 -3.08545,-9.84571 0,-7.69628 5.09619,-11.96044 5.13086,-4.298833 14.35254,-4.298833 4.5415,0 9.42969,0.762696 4.92285,0.762695 10.19238,2.288087 v 11.44043 h -4.40283 q -1.00537,-5.33887 -4.40284,-7.80029 -3.39746,-2.4961 -9.67236,-2.4961 -5.13086,0 -7.76562,1.80274 -2.6001,1.76806 -2.6001,5.3042 0,3.22412 1.80273,4.92285 1.80274,1.66406 8.84033,3.46679 l 7.76563,1.90674 q 7.21094,1.80274 10.43506,5.61621 3.25879,3.81348 3.25879,10.5044 0,7.83496 -5.40821,11.92578 -5.4082,4.05615 -15.91259,4.05615 -5.06153,0 -10.05371,-0.8667 -4.99219,-0.8667 -10.15772,-2.63476 z"
       id="path83" />
    <path
       d="m 422.63281,151 v -4.19482 h 6.62158 v -43.36963 h -6.62158 v -4.194827 h 26.625 v 4.194827 h -6.65625 v 18.89404 l 21.94483,-18.89404 h -5.54688 v -4.194827 h 19.31006 v 4.194827 h -6.89893 l -18.58203,15.98193 25.27295,27.3877 h 5.09619 V 151 h -17.54199 l -23.0542,-25.13428 v 20.93946 h 6.65625 V 151 Z"
       id="path85" />
    <path
       d="m 481.3418,151 v -4.19482 h 6.62158 v -43.36963 h -6.62158 v -4.194827 h 46.52441 v 12.203127 h -4.78418 v -7.45362 h -21.77148 v 16.60596 h 13.55517 v -6.58691 h 4.74951 v 17.88867 h -4.74951 v -6.58691 h -13.55517 v 20.93945 h 22.43017 v -7.45362 h 4.74951 V 151 Z"
       id="path87" />
    <path
       d="m 541.3335,151 v -4.19482 h 6.96826 V 129.5752 l -15.39258,-26.13965 h -4.40283 v -4.194827 h 24.82226 v 4.194827 h -5.75488 l 11.64844,19.72607 11.5791,-19.72607 h -5.16553 v -4.194827 h 14.83789 v 4.194827 h -4.40283 l -14.35254,24.33691 v 19.03272 h 6.96826 V 151 Z"
       id="path89" />
    <path
       d="m 621.83008,146.80518 h 4.81885 q 8.1123,0 11.85644,-5.2002 3.77881,-5.20019 3.77881,-16.53662 0,-11.26709 -3.74414,-16.43262 -3.74414,-5.20019 -11.89111,-5.20019 h -4.81885 z M 601.86133,151 v -4.19482 h 6.62158 v -43.36963 h -6.62158 v -4.194827 h 26.55566 q 13.93653,0 21.3208,6.656247 7.38428,6.65625 7.38428,19.17139 0,12.58447 -7.41895,19.27539 Q 642.31885,151 628.41699,151 Z"
       id="path91" />
    <path
       d="m 694.7876,125.72705 q 3.08545,0.45068 5.20019,2.04541 2.11475,1.59473 3.67481,4.61084 l 7.55761,14.42188 h 5.3042 V 151 h -17.02197 l -8.25098,-15.63525 q -2.39209,-4.85352 -4.09082,-6.1709 -1.66406,-1.35205 -4.6455,-1.35205 h -2.11475 v 18.96338 h 6.65625 V 151 h -26.625 v -4.19482 h 6.62158 v -43.36963 h -6.62158 v -4.194827 h 29.53711 q 9.01367,0 13.90186,3.640137 4.92285,3.60547 4.92285,10.26172 0,5.4082 -3.50147,8.56299 -3.46679,3.12011 -10.50439,4.02148 z m -14.38721,-2.04541 h 4.5415 q 4.85352,0 7.45362,-2.63476 2.63476,-2.63477 2.63476,-7.52295 0,-4.88819 -2.63476,-7.48829 -2.6001,-2.60009 -7.45362,-2.60009 h -4.5415 z"
       id="path93" />
    <path
       d="m 712.55371,151 v -4.19482 h 4.22949 l 19.4834,-47.564457 h 8.28565 l 19.51806,47.564457 h 4.92285 V 151 h -24.23291 v -4.19482 h 5.06153 l -4.26416,-10.57373 h -19.44873 l -4.3335,10.57373 h 6.1709 V 151 Z m 15.25391,-18.96338 h 16.05127 l -7.97364,-19.79541 z"
       id="path95" />
    <path
       d="m 768.52393,151 v -4.19482 h 6.62158 v -43.36963 h -6.62158 v -4.194827 h 46.14306 v 12.203127 h -4.74951 v -7.45362 h -21.35547 v 16.60596 h 13.13916 v -6.58691 h 4.74951 v 17.88867 h -4.74951 v -6.58691 h -13.13916 v 21.49414 h 8.14697 V 151 Z"
       id="path97" />
    <path
       d="m 825.46484,151 v -4.19482 h 6.86426 v -42.81495 h -14.1792 v 8.18165 h -4.74951 V 99.240723 h 51.30859 v 12.931157 h -4.68017 v -8.18165 h -14.2832 v 42.81495 h 6.89892 V 151 Z"
       id="path99" />
  </g>
  <path
     d="M205 169H792"
     stroke="#d9a45f"
     stroke-width="4"
     id="path22" />
</svg>
